<?xml version="1.0" encoding="utf-8"?>
<!-- Generator: Adobe Illustrator 24.3.0, SVG Export Plug-In . SVG Version: 6.00 Build 0)  -->
<svg version="1.1" id="Layer_1" xmlns="http://www.w3.org/2000/svg" xmlns:xlink="http://www.w3.org/1999/xlink" x="0px" y="0px"
	 viewBox="0 0 512 512" style="enable-background:new 0 0 512 512;" xml:space="preserve">
<style type="text/css">
	.st0{clip-path:url(#SVGID_2_);}
	.st1{fill:#FFFFFF;}
	.st2{fill:#FF4B55;}
	.st3{fill:#41479B;}
</style>
<g>
	<g>
		<g>
			<defs>
				<rect id="SVGID_1_" width="512" height="512"/>
			</defs>
			<clipPath id="SVGID_2_">
				<use xlink:href="#SVGID_1_"  style="overflow:visible;"/>
			</clipPath>
			<g class="st0">
				<rect x="0.23" y="88.33" class="st1" width="640.77" height="335.58"/>
				<rect x="0.24" y="87.07" class="st2" width="640.23" height="26.55"/>
				<rect x="0.24" y="138.99" class="st2" width="640.23" height="26.55"/>
				<rect x="0.24" y="190.92" class="st2" width="640.23" height="26.55"/>
				<rect x="0.24" y="242.84" class="st2" width="640.23" height="26.55"/>
				<rect x="0.24" y="294.76" class="st2" width="640.23" height="26.55"/>
				<rect x="0.24" y="346.69" class="st2" width="640.23" height="26.55"/>
				<rect x="0.24" y="398.61" class="st2" width="640.23" height="26.55"/>
				<rect x="0.22" y="87.06" class="st3" width="255.7" height="182.33"/>
				<g>
					<polygon class="st1" points="21.97,94.04 24.36,101.49 32.11,101.49 25.84,106.09 28.24,113.53 21.97,108.93 15.71,113.53 
						18.1,106.09 11.83,101.49 19.58,101.49 					"/>
					<polygon class="st1" points="43.05,112.75 45.44,120.2 53.18,120.2 46.92,124.8 49.31,132.24 43.05,127.64 36.78,132.24 
						39.17,124.8 32.91,120.2 40.65,120.2 					"/>
					<polygon class="st1" points="43.05,149.31 45.44,156.75 53.18,156.75 46.92,161.35 49.31,168.79 43.05,164.19 36.78,168.79 
						39.17,161.35 32.91,156.75 40.65,156.75 					"/>
					<polygon class="st1" points="43.05,185.86 45.44,193.3 53.18,193.3 46.92,197.9 49.31,205.35 43.05,200.75 36.78,205.35 
						39.17,197.9 32.91,193.3 40.65,193.3 					"/>
					<polygon class="st1" points="43.05,222.41 45.44,229.86 53.18,229.86 46.92,234.46 49.31,241.9 43.05,237.3 36.78,241.9 
						39.17,234.46 32.91,229.86 40.65,229.86 					"/>
					<polygon class="st1" points="85.77,112.75 88.16,120.2 95.9,120.2 89.64,124.8 92.03,132.24 85.77,127.64 79.5,132.24 
						81.89,124.8 75.63,120.2 83.37,120.2 					"/>
					<polygon class="st1" points="85.77,149.31 88.16,156.75 95.9,156.75 89.64,161.35 92.03,168.79 85.77,164.19 79.5,168.79 
						81.89,161.35 75.63,156.75 83.37,156.75 					"/>
					<polygon class="st1" points="85.77,185.86 88.16,193.3 95.9,193.3 89.64,197.9 92.03,205.35 85.77,200.75 79.5,205.35 
						81.89,197.9 75.63,193.3 83.37,193.3 					"/>
					<polygon class="st1" points="85.77,222.41 88.16,229.86 95.9,229.86 89.64,234.46 92.03,241.9 85.77,237.3 79.5,241.9 
						81.89,234.46 75.63,229.86 83.37,229.86 					"/>
					<polygon class="st1" points="128.49,112.75 130.88,120.2 138.62,120.2 132.36,124.8 134.75,132.24 128.49,127.64 
						122.22,132.24 124.61,124.8 118.35,120.2 126.09,120.2 					"/>
					<polygon class="st1" points="128.49,149.31 130.88,156.75 138.62,156.75 132.36,161.35 134.75,168.79 128.49,164.19 
						122.22,168.79 124.61,161.35 118.35,156.75 126.09,156.75 					"/>
					<polygon class="st1" points="128.49,185.86 130.88,193.3 138.62,193.3 132.36,197.9 134.75,205.35 128.49,200.75 
						122.22,205.35 124.61,197.9 118.35,193.3 126.09,193.3 					"/>
					<polygon class="st1" points="128.49,222.41 130.88,229.86 138.62,229.86 132.36,234.46 134.75,241.9 128.49,237.3 
						122.22,241.9 124.61,234.46 118.35,229.86 126.09,229.86 					"/>
					<polygon class="st1" points="171.2,112.75 173.6,120.2 181.34,120.2 175.08,124.8 177.47,132.24 171.2,127.64 164.94,132.24 
						167.33,124.8 161.07,120.2 168.81,120.2 					"/>
					<polygon class="st1" points="171.2,149.31 173.6,156.75 181.34,156.75 175.08,161.35 177.47,168.79 171.2,164.19 
						164.94,168.79 167.33,161.35 161.07,156.75 168.81,156.75 					"/>
					<polygon class="st1" points="171.2,185.86 173.6,193.3 181.34,193.3 175.08,197.9 177.47,205.35 171.2,200.75 164.94,205.35 
						167.33,197.9 161.07,193.3 168.81,193.3 					"/>
					<polygon class="st1" points="171.2,222.41 173.6,229.86 181.34,229.86 175.08,234.46 177.47,241.9 171.2,237.3 164.94,241.9 
						167.33,234.46 161.07,229.86 168.81,229.86 					"/>
					<polygon class="st1" points="213.92,112.75 216.32,120.2 224.06,120.2 217.8,124.8 220.19,132.24 213.92,127.64 207.66,132.24 
						210.05,124.8 203.79,120.2 211.53,120.2 					"/>
					<polygon class="st1" points="213.92,149.31 216.32,156.75 224.06,156.75 217.8,161.35 220.19,168.79 213.92,164.19 
						207.66,168.79 210.05,161.35 203.79,156.75 211.53,156.75 					"/>
					<polygon class="st1" points="213.92,185.86 216.32,193.3 224.06,193.3 217.8,197.9 220.19,205.35 213.92,200.75 207.66,205.35 
						210.05,197.9 203.79,193.3 211.53,193.3 					"/>
					<polygon class="st1" points="213.92,222.41 216.32,229.86 224.06,229.86 217.8,234.46 220.19,241.9 213.92,237.3 207.66,241.9 
						210.05,234.46 203.79,229.86 211.53,229.86 					"/>
					<polygon class="st1" points="21.97,130.6 24.36,138.04 32.11,138.04 25.84,142.64 28.24,150.08 21.97,145.48 15.71,150.08 
						18.1,142.64 11.83,138.04 19.58,138.04 					"/>
					<polygon class="st1" points="21.97,167.15 24.36,174.59 32.11,174.59 25.84,179.19 28.24,186.64 21.97,182.04 15.71,186.64 
						18.1,179.19 11.83,174.59 19.58,174.59 					"/>
					<polygon class="st1" points="21.97,203.7 24.36,211.15 32.11,211.15 25.84,215.75 28.24,223.19 21.97,218.59 15.71,223.19 
						18.1,215.75 11.83,211.15 19.58,211.15 					"/>
					<polygon class="st1" points="21.97,240.26 24.36,247.7 32.11,247.7 25.84,252.3 28.24,259.74 21.97,255.14 15.71,259.74 
						18.1,252.3 11.83,247.7 19.58,247.7 					"/>
					<polygon class="st1" points="64.12,94.04 66.51,101.49 74.26,101.49 67.99,106.09 70.39,113.53 64.12,108.93 57.86,113.53 
						60.25,106.09 53.98,101.49 61.73,101.49 					"/>
					<polygon class="st1" points="64.12,130.6 66.51,138.04 74.26,138.04 67.99,142.64 70.39,150.08 64.12,145.48 57.86,150.08 
						60.25,142.64 53.98,138.04 61.73,138.04 					"/>
					<polygon class="st1" points="64.12,167.15 66.51,174.59 74.26,174.59 67.99,179.19 70.39,186.64 64.12,182.04 57.86,186.64 
						60.25,179.19 53.98,174.59 61.73,174.59 					"/>
					<polygon class="st1" points="64.12,203.7 66.51,211.15 74.26,211.15 67.99,215.75 70.39,223.19 64.12,218.59 57.86,223.19 
						60.25,215.75 53.98,211.15 61.73,211.15 					"/>
					<polygon class="st1" points="64.12,240.26 66.51,247.7 74.26,247.7 67.99,252.3 70.39,259.74 64.12,255.14 57.86,259.74 
						60.25,252.3 53.98,247.7 61.73,247.7 					"/>
					<polygon class="st1" points="107.41,94.04 109.8,101.49 117.55,101.49 111.28,106.09 113.67,113.53 107.41,108.93 
						101.15,113.53 103.54,106.09 97.27,101.49 105.02,101.49 					"/>
					<polygon class="st1" points="107.41,130.6 109.8,138.04 117.55,138.04 111.28,142.64 113.67,150.08 107.41,145.48 
						101.15,150.08 103.54,142.64 97.27,138.04 105.02,138.04 					"/>
					<polygon class="st1" points="107.41,167.15 109.8,174.59 117.55,174.59 111.28,179.19 113.67,186.64 107.41,182.04 
						101.15,186.64 103.54,179.19 97.27,174.59 105.02,174.59 					"/>
					<polygon class="st1" points="107.41,203.7 109.8,211.15 117.55,211.15 111.28,215.75 113.67,223.19 107.41,218.59 
						101.15,223.19 103.54,215.75 97.27,211.15 105.02,211.15 					"/>
					<polygon class="st1" points="107.41,240.26 109.8,247.7 117.55,247.7 111.28,252.3 113.67,259.74 107.41,255.14 101.15,259.74 
						103.54,252.3 97.27,247.7 105.02,247.7 					"/>
					<polygon class="st1" points="149.85,94.04 152.24,101.49 159.98,101.49 153.72,106.09 156.11,113.53 149.85,108.93 
						143.58,113.53 145.97,106.09 139.71,101.49 147.45,101.49 					"/>
					<polygon class="st1" points="149.85,130.6 152.24,138.04 159.98,138.04 153.72,142.64 156.11,150.08 149.85,145.48 
						143.58,150.08 145.97,142.64 139.71,138.04 147.45,138.04 					"/>
					<polygon class="st1" points="149.85,167.15 152.24,174.59 159.98,174.59 153.72,179.19 156.11,186.64 149.85,182.04 
						143.58,186.64 145.97,179.19 139.71,174.59 147.45,174.59 					"/>
					<polygon class="st1" points="149.85,203.7 152.24,211.15 159.98,211.15 153.72,215.75 156.11,223.19 149.85,218.59 
						143.58,223.19 145.97,215.75 139.71,211.15 147.45,211.15 					"/>
					<polygon class="st1" points="149.85,240.26 152.24,247.7 159.98,247.7 153.72,252.3 156.11,259.74 149.85,255.14 
						143.58,259.74 145.97,252.3 139.71,247.7 147.45,247.7 					"/>
					<polygon class="st1" points="192.28,94.04 194.67,101.49 202.42,101.49 196.15,106.09 198.55,113.53 192.28,108.93 
						186.02,113.53 188.41,106.09 182.14,101.49 189.89,101.49 					"/>
					<polygon class="st1" points="192.28,130.6 194.67,138.04 202.42,138.04 196.15,142.64 198.55,150.08 192.28,145.48 
						186.02,150.08 188.41,142.64 182.14,138.04 189.89,138.04 					"/>
					<polygon class="st1" points="192.28,167.15 194.67,174.59 202.42,174.59 196.15,179.19 198.55,186.64 192.28,182.04 
						186.02,186.64 188.41,179.19 182.14,174.59 189.89,174.59 					"/>
					<polygon class="st1" points="192.28,203.7 194.67,211.15 202.42,211.15 196.15,215.75 198.55,223.19 192.28,218.59 
						186.02,223.19 188.41,215.75 182.14,211.15 189.89,211.15 					"/>
					<polygon class="st1" points="192.28,240.26 194.67,247.7 202.42,247.7 196.15,252.3 198.55,259.74 192.28,255.14 
						186.02,259.74 188.41,252.3 182.14,247.7 189.89,247.7 					"/>
					<polygon class="st1" points="235.57,94.04 237.96,101.49 245.71,101.49 239.44,106.09 241.83,113.53 235.57,108.93 
						229.31,113.53 231.7,106.09 225.43,101.49 233.18,101.49 					"/>
					<polygon class="st1" points="235.57,130.6 237.96,138.04 245.71,138.04 239.44,142.64 241.83,150.08 235.57,145.48 
						229.31,150.08 231.7,142.64 225.43,138.04 233.18,138.04 					"/>
					<polygon class="st1" points="235.57,167.15 237.96,174.59 245.71,174.59 239.44,179.19 241.83,186.64 235.57,182.04 
						229.31,186.64 231.7,179.19 225.43,174.59 233.18,174.59 					"/>
					<polygon class="st1" points="235.57,203.7 237.96,211.15 245.71,211.15 239.44,215.75 241.83,223.19 235.57,218.59 
						229.31,223.19 231.7,215.75 225.43,211.15 233.18,211.15 					"/>
					<polygon class="st1" points="235.57,240.26 237.96,247.7 245.71,247.7 239.44,252.3 241.83,259.74 235.57,255.14 
						229.31,259.74 231.7,252.3 225.43,247.7 233.18,247.7 					"/>
				</g>
			</g>
		</g>
	</g>
</g>
</svg>
